<svg width="196" height="89" viewBox="0 0 196 89" fill="none" xmlns="http://www.w3.org/2000/svg">
<g filter="url(#filter0_d)">
<path d="M95.3047 21.9297C95.3047 21.4453 95.3516 20.9062 95.4453 20.3125C95.5547 19.7031 95.7109 19.0937 95.9141 18.4844C96.1172 17.8594 96.3672 17.2578 96.6641 16.6797C96.9766 16.0859 97.3281 15.5625 97.7188 15.1094C98.125 14.6406 98.5781 14.2656 99.0781 13.9844C99.5938 13.7031 100.156 13.5625 100.766 13.5625C101.203 13.5625 101.57 13.6484 101.867 13.8203C102.18 13.9922 102.43 14.2187 102.617 14.5C102.805 14.7812 102.938 15.1016 103.016 15.4609C103.109 15.8047 103.156 16.1562 103.156 16.5156C102.812 16.5156 102.555 16.4141 102.383 16.2109C102.211 15.9922 102.047 15.7578 101.891 15.5078C101.75 15.2422 101.578 15.0078 101.375 14.8047C101.188 14.5859 100.898 14.4766 100.508 14.4766C99.9922 14.4766 99.5312 14.6172 99.125 14.8984C98.7344 15.1797 98.3906 15.5469 98.0938 16C97.7969 16.4375 97.5469 16.9375 97.3438 17.5C97.1562 18.0625 97 18.625 96.875 19.1875C96.7656 19.75 96.6875 20.2969 96.6406 20.8281C96.5938 21.3437 96.5703 21.7812 96.5703 22.1406C96.5078 22.6719 96.5 23.2266 96.5469 23.8047C96.6094 24.3672 96.7422 24.8906 96.9453 25.375C97.1484 25.8437 97.4453 26.2422 97.8359 26.5703C98.2266 26.8828 98.7422 27.0625 99.3828 27.1094C99.7891 27.1094 100.242 27.0469 100.742 26.9219C101.242 26.7812 101.734 26.625 102.219 26.4531C102.719 26.2656 103.195 26.0703 103.648 25.8672C104.102 25.6484 104.484 25.4609 104.797 25.3047V26.2187C104.781 26.2187 104.68 26.2578 104.492 26.3359C104.32 26.3984 104.086 26.4844 103.789 26.5937C103.508 26.7031 103.18 26.8203 102.805 26.9453C102.445 27.0703 102.086 27.2031 101.727 27.3437C101.367 27.4687 101.016 27.5937 100.672 27.7187C100.344 27.8281 100.062 27.9219 99.8281 28C99.8125 28 99.7812 28 99.7344 28C99.6875 28.0156 99.6484 28.0234 99.6172 28.0234C98.7578 28.0234 98.0469 27.8437 97.4844 27.4844C96.9375 27.1094 96.5 26.6328 96.1719 26.0547C95.8438 25.4609 95.6172 24.8047 95.4922 24.0859C95.3672 23.3516 95.3047 22.6328 95.3047 21.9297ZM108.065 11.9219L108.674 19.6094C108.784 19.5156 108.924 19.375 109.096 19.1875C109.268 19 109.471 18.8281 109.706 18.6719C109.94 18.5 110.198 18.3594 110.479 18.25C110.76 18.125 111.065 18.0703 111.393 18.0859C112.034 18.1484 112.542 18.4062 112.917 18.8594C113.307 19.3125 113.596 19.8672 113.784 20.5234C113.987 21.1797 114.12 21.8984 114.182 22.6797C114.245 23.4453 114.26 24.1797 114.229 24.8828C114.213 25.5859 114.174 26.2109 114.112 26.7578C114.065 27.3047 114.026 27.6797 113.995 27.8828L113.151 27.7656C113.151 27.625 113.151 27.4062 113.151 27.1094C113.167 26.7969 113.182 26.4375 113.198 26.0312C113.213 25.6094 113.221 25.1719 113.221 24.7187C113.221 24.2656 113.221 23.8437 113.221 23.4531C113.237 23.0469 113.237 22.6875 113.221 22.375C113.221 22.0625 113.213 21.8437 113.198 21.7187C113.213 21.2812 113.128 20.8594 112.94 20.4531C112.753 20.0469 112.503 19.7422 112.19 19.5391C111.878 19.3203 111.503 19.25 111.065 19.3281C110.628 19.3906 110.159 19.6953 109.659 20.2422C109.221 20.8984 108.901 21.5469 108.698 22.1875C108.495 22.8125 108.362 23.4375 108.299 24.0625C108.237 24.6719 108.213 25.3047 108.229 25.9609C108.245 26.6016 108.245 27.2812 108.229 28L107.315 27.8594C107.362 27.6875 107.393 27.375 107.409 26.9219C107.44 26.4531 107.463 25.8984 107.479 25.2578C107.495 24.6016 107.503 23.875 107.503 23.0781C107.518 22.2812 107.518 21.4609 107.503 20.6172C107.503 19.7578 107.495 18.8984 107.479 18.0391C107.463 17.1797 107.44 16.3594 107.409 15.5781C107.393 14.7969 107.37 14.0781 107.338 13.4219C107.323 12.7656 107.307 12.2266 107.292 11.8047L108.065 11.9219ZM116.63 25.9844C116.63 25.0937 116.872 24.4453 117.357 24.0391C117.857 23.6328 118.505 23.4297 119.302 23.4297C119.614 23.4297 119.903 23.4375 120.169 23.4531C120.45 23.4687 120.716 23.5078 120.966 23.5703C121.216 23.6328 121.458 23.7266 121.693 23.8516C121.943 23.9766 122.2 24.1562 122.466 24.3906C122.466 24.3437 122.466 24.25 122.466 24.1094C122.482 23.9531 122.489 23.7891 122.489 23.6172C122.489 23.4453 122.489 23.2891 122.489 23.1484C122.489 22.9922 122.489 22.8828 122.489 22.8203C122.474 22.5391 122.466 22.1797 122.466 21.7422C122.466 21.2891 122.427 20.8281 122.349 20.3594C122.286 19.8906 122.146 19.4453 121.927 19.0234C121.724 18.6016 121.388 18.2812 120.919 18.0625C120.591 18.0625 120.286 18.1172 120.005 18.2266C119.724 18.3359 119.443 18.4531 119.161 18.5781C118.88 18.7031 118.599 18.8203 118.318 18.9297C118.036 19.0234 117.732 19.0703 117.403 19.0703C117.403 18.6797 117.521 18.3594 117.755 18.1094C118.005 17.8437 118.302 17.6406 118.646 17.5C118.989 17.3594 119.349 17.2656 119.724 17.2187C120.099 17.1719 120.427 17.1484 120.708 17.1484C120.989 17.1953 121.247 17.25 121.482 17.3125C121.732 17.375 121.958 17.5 122.161 17.6875C122.38 17.875 122.575 18.1641 122.747 18.5547C122.935 18.9297 123.091 19.4609 123.216 20.1484C123.357 20.8359 123.474 21.7109 123.568 22.7734C123.677 23.8203 123.763 25.1094 123.825 26.6406C123.857 26.8437 123.786 27.0234 123.614 27.1797C123.458 27.3203 123.239 27.4453 122.958 27.5547C122.677 27.6484 122.357 27.7344 121.997 27.8125C121.653 27.875 121.302 27.9219 120.943 27.9531C120.583 27.9844 120.239 28.0078 119.911 28.0234C119.583 28.0391 119.31 28.0469 119.091 28.0469C118.81 28.0469 118.521 28 118.224 27.9062C117.943 27.8125 117.677 27.6797 117.427 27.5078C117.193 27.3203 116.997 27.1016 116.841 26.8516C116.7 26.5859 116.63 26.2969 116.63 25.9844ZM119.677 24.3437C118.896 24.5625 118.349 24.8281 118.036 25.1406C117.724 25.4375 117.583 25.7266 117.614 26.0078C117.661 26.2891 117.849 26.5469 118.177 26.7812C118.505 27 118.903 27.1484 119.372 27.2266C119.841 27.2891 120.349 27.25 120.896 27.1094C121.443 26.9531 121.966 26.6562 122.466 26.2187C122.278 25.7656 122.091 25.4219 121.903 25.1875C121.716 24.9375 121.513 24.75 121.294 24.625C121.075 24.5 120.833 24.4219 120.568 24.3906C120.302 24.3594 120.005 24.3437 119.677 24.3437ZM126.531 27.8828C126.5 27.6328 126.468 27.2734 126.437 26.8047C126.422 26.3203 126.398 25.7812 126.367 25.1875C126.351 24.5781 126.336 23.9453 126.32 23.2891C126.304 22.6328 126.289 22.0078 126.273 21.4141C126.257 20.8203 126.234 20.2891 126.203 19.8203C126.187 19.3359 126.156 18.9687 126.109 18.7187C126.109 18.7031 126.101 18.6641 126.086 18.6016C126.086 18.5391 126.078 18.4687 126.062 18.3906C126.062 18.3125 126.062 18.25 126.062 18.2031C126.062 18.1406 126.062 18.0937 126.062 18.0625C126.297 17.875 126.492 17.8125 126.648 17.875C126.82 17.9375 126.961 18.0781 127.07 18.2969C127.179 18.5 127.257 18.7578 127.304 19.0703C127.351 19.3828 127.382 19.6953 127.398 20.0078C127.429 20.3203 127.445 20.6094 127.445 20.875C127.445 21.125 127.445 21.3047 127.445 21.4141C127.476 21.1484 127.523 20.8359 127.586 20.4766C127.648 20.1172 127.742 19.75 127.867 19.375C127.992 19 128.14 18.6328 128.312 18.2734C128.5 17.8984 128.726 17.5703 128.992 17.2891C129.257 17.0078 129.554 16.7891 129.882 16.6328C130.226 16.4766 130.617 16.4141 131.054 16.4453C131.742 16.4766 132.304 16.6641 132.742 17.0078C133.195 17.3516 133.547 17.8125 133.797 18.3906C134.062 18.9687 134.25 19.6328 134.359 20.3828C134.484 21.1328 134.562 21.9297 134.593 22.7734C134.64 23.6172 134.656 24.4766 134.64 25.3516C134.625 26.2109 134.617 27.0391 134.617 27.8359C134.476 27.8672 134.336 27.9219 134.195 28C134.054 28.0625 133.937 28.0859 133.843 28.0703C133.75 28.0703 133.679 28.0078 133.632 27.8828C133.601 27.7422 133.617 27.4766 133.679 27.0859C133.695 26.8047 133.718 26.375 133.75 25.7969C133.797 25.2031 133.812 24.5469 133.797 23.8281C133.797 23.1094 133.757 22.3672 133.679 21.6016C133.601 20.8359 133.453 20.1406 133.234 19.5156C133.031 18.875 132.734 18.3594 132.343 17.9687C131.953 17.5625 131.445 17.3594 130.82 17.3594C130.179 17.625 129.64 18.125 129.203 18.8594C128.781 19.5937 128.437 20.4531 128.172 21.4375C127.922 22.4219 127.734 23.4922 127.609 24.6484C127.5 25.7891 127.437 26.9062 127.422 28C127.39 27.9844 127.328 27.9766 127.234 27.9766C127.156 27.9766 127.062 27.9766 126.953 27.9766C126.859 27.9609 126.765 27.9453 126.672 27.9297C126.593 27.9141 126.547 27.8984 126.531 27.8828ZM133.807 33.5547C133.807 33.1328 133.877 32.8125 134.018 32.5937C134.158 32.375 134.487 32.2656 135.002 32.2656C134.955 32.4844 134.901 32.7031 134.838 32.9219C134.76 33.1406 134.698 33.3437 134.651 33.5312C134.588 33.7187 134.565 33.8672 134.58 33.9766C134.58 34.0859 134.635 34.125 134.744 34.0937C135.244 34.4219 135.791 34.6562 136.385 34.7969C136.979 34.9375 137.565 35.0078 138.143 35.0078C139.018 34.9922 139.768 34.8125 140.393 34.4687C141.033 34.125 141.557 33.6797 141.963 33.1328C142.385 32.5859 142.705 31.9531 142.924 31.2344C143.158 30.5312 143.299 29.7969 143.346 29.0312C143.408 28.2812 143.393 27.5234 143.299 26.7578C143.205 25.9922 143.057 25.2891 142.854 24.6484C142.588 24.9453 142.315 25.2578 142.033 25.5859C141.768 25.9141 141.479 26.2109 141.166 26.4766C140.854 26.7266 140.518 26.9375 140.158 27.1094C139.815 27.2812 139.424 27.3672 138.987 27.3672C138.533 27.3672 138.19 27.2891 137.955 27.1328C137.737 26.9766 137.588 26.7656 137.51 26.5C137.432 26.2187 137.393 25.8984 137.393 25.5391C137.408 25.1797 137.416 24.7969 137.416 24.3906C137.416 24.0156 137.424 23.5937 137.44 23.125C137.471 22.6562 137.526 22.1875 137.604 21.7187C137.698 21.2344 137.815 20.7656 137.955 20.3125C138.112 19.8437 138.315 19.4297 138.565 19.0703C138.815 18.6953 139.127 18.3984 139.502 18.1797C139.877 17.9609 140.323 17.8516 140.838 17.8516C141.166 17.8516 141.479 17.8828 141.776 17.9453C142.088 17.9922 142.369 18.0859 142.619 18.2266C142.885 18.3672 143.112 18.5547 143.299 18.7891C143.487 19.0234 143.635 19.3203 143.744 19.6797C143.807 20.3828 143.885 21.1484 143.979 21.9766C144.073 22.7891 144.151 23.6406 144.213 24.5312C144.276 25.4062 144.307 26.2891 144.307 27.1797C144.307 28.0703 144.244 28.9297 144.119 29.7578C144.01 30.5859 143.815 31.3594 143.533 32.0781C143.268 32.8125 142.885 33.4531 142.385 34C141.901 34.5625 141.291 35.0078 140.557 35.3359C139.823 35.6797 138.94 35.8672 137.908 35.8984C137.471 35.8984 137.01 35.8672 136.526 35.8047C136.041 35.7578 135.596 35.6484 135.19 35.4766C134.783 35.3203 134.455 35.0859 134.205 34.7734C133.94 34.4766 133.807 34.0703 133.807 33.5547ZM138.307 24.3906C138.307 24.5625 138.299 24.7578 138.283 24.9766C138.268 25.1953 138.276 25.4141 138.307 25.6328C138.338 25.8516 138.401 26.0391 138.494 26.1953C138.604 26.3516 138.776 26.4375 139.01 26.4531C139.385 26.4531 139.729 26.3672 140.041 26.1953C140.369 26.0234 140.658 25.7891 140.908 25.4922C141.174 25.1953 141.401 24.8672 141.588 24.5078C141.791 24.1328 141.955 23.75 142.08 23.3594C142.221 22.9687 142.323 22.5937 142.385 22.2344C142.463 21.8594 142.502 21.5312 142.502 21.25C142.549 20.9531 142.549 20.6562 142.502 20.3594C142.471 20.0625 142.385 19.7969 142.244 19.5625C142.104 19.3281 141.916 19.1406 141.682 19C141.448 18.8437 141.166 18.7656 140.838 18.7656C140.463 18.7656 140.135 18.875 139.854 19.0937C139.573 19.2969 139.338 19.5625 139.151 19.8906C138.963 20.2187 138.815 20.5937 138.705 21.0156C138.596 21.4219 138.51 21.8359 138.448 22.2578C138.401 22.6641 138.362 23.0625 138.33 23.4531C138.315 23.8281 138.307 24.1406 138.307 24.3906ZM147.036 22.4922C147.036 22.0234 147.138 21.5078 147.341 20.9453C147.544 20.3672 147.817 19.8359 148.161 19.3516C148.52 18.8516 148.919 18.4375 149.356 18.1094C149.809 17.7656 150.278 17.5937 150.763 17.5937C151.028 17.5937 151.286 17.6484 151.536 17.7578C151.802 17.8672 152.052 18.0156 152.286 18.2031C152.536 18.375 152.755 18.5781 152.942 18.8125C153.145 19.0312 153.302 19.2656 153.411 19.5156C153.52 19.7656 153.575 20.0078 153.575 20.2422C153.591 20.4766 153.528 20.6797 153.388 20.8516L148.442 21.7656C148.38 21.7812 148.325 21.8594 148.278 22C148.231 22.125 148.192 22.2891 148.161 22.4922C148.13 22.6953 148.098 22.9219 148.067 23.1719C148.052 23.4062 148.036 23.6406 148.02 23.875C148.005 24.0937 147.997 24.2969 147.997 24.4844C147.997 24.6562 147.997 24.7891 147.997 24.8828C147.997 25.3203 148.098 25.6797 148.302 25.9609C148.52 26.2266 148.794 26.4297 149.122 26.5703C149.45 26.7109 149.817 26.8047 150.223 26.8516C150.645 26.8984 151.059 26.9219 151.466 26.9219C151.872 26.9219 152.255 26.9062 152.614 26.875C152.973 26.8437 153.27 26.8281 153.505 26.8281C153.505 26.8906 153.481 26.9609 153.434 27.0391C153.388 27.1172 153.333 27.1953 153.27 27.2734C153.208 27.3359 153.145 27.3984 153.083 27.4609C153.02 27.5078 152.981 27.5391 152.966 27.5547C152.841 27.5859 152.645 27.6328 152.38 27.6953C152.13 27.7422 151.856 27.7891 151.559 27.8359C151.278 27.8828 151.013 27.9219 150.763 27.9531C150.513 27.9844 150.341 28 150.247 28C149.763 28.0937 149.341 28.0859 148.981 27.9766C148.622 27.8672 148.317 27.6797 148.067 27.4141C147.817 27.1484 147.614 26.8281 147.458 26.4531C147.302 26.0625 147.184 25.6484 147.106 25.2109C147.028 24.7734 146.981 24.3203 146.966 23.8516C146.966 23.3828 146.989 22.9297 147.036 22.4922ZM150.434 18.4844C150.294 18.4844 150.106 18.5625 149.872 18.7187C149.653 18.8594 149.442 19.0469 149.239 19.2812C149.052 19.5 148.888 19.7422 148.747 20.0078C148.622 20.2578 148.583 20.4766 148.63 20.6641C149.036 20.7109 149.458 20.7031 149.895 20.6406C150.333 20.5781 150.731 20.4844 151.091 20.3594C151.45 20.2187 151.747 20.0625 151.981 19.8906C152.216 19.7031 152.325 19.5156 152.309 19.3281C152.309 19.1406 152.161 18.9766 151.864 18.8359C151.583 18.6797 151.106 18.5625 150.434 18.4844ZM166.65 18.8594C166.838 18.8594 167.041 18.9062 167.26 19C167.478 19.0937 167.635 19.2812 167.728 19.5625C167.853 19.0312 168.041 18.6016 168.291 18.2734C168.557 17.9453 168.853 17.7187 169.182 17.5937C169.525 17.4687 169.877 17.4297 170.236 17.4766C170.611 17.5078 170.955 17.6172 171.268 17.8047C171.596 17.9922 171.877 18.2344 172.111 18.5312C172.361 18.8281 172.533 19.1719 172.627 19.5625C172.799 19.0781 173.025 18.6328 173.307 18.2266C173.603 17.8047 173.924 17.4531 174.268 17.1719C174.627 16.8906 174.994 16.6953 175.369 16.5859C175.76 16.4766 176.119 16.4844 176.447 16.6094C176.791 16.7187 177.088 16.9687 177.338 17.3594C177.603 17.7344 177.791 18.2812 177.9 19C177.932 19.2031 177.971 19.5078 178.018 19.9141C178.064 20.3047 178.111 20.75 178.158 21.25C178.221 21.75 178.283 22.2812 178.346 22.8437C178.424 23.3906 178.486 23.9141 178.533 24.4141C178.596 24.9141 178.65 25.3672 178.697 25.7734C178.744 26.1641 178.783 26.4531 178.814 26.6406C178.814 26.7969 178.807 26.9687 178.791 27.1562C178.775 27.3437 178.736 27.5078 178.674 27.6484C178.627 27.7734 178.541 27.8594 178.416 27.9062C178.307 27.9375 178.135 27.8672 177.9 27.6953C177.9 27.5078 177.877 27.2031 177.83 26.7812C177.783 26.3594 177.736 25.875 177.689 25.3281C177.643 24.7656 177.58 24.1797 177.502 23.5703C177.439 22.9453 177.369 22.3594 177.291 21.8125C177.228 21.2656 177.174 20.7812 177.127 20.3594C177.08 19.9375 177.033 19.6406 176.986 19.4687C176.752 18.75 176.502 18.25 176.236 17.9687C175.986 17.6875 175.728 17.5625 175.463 17.5937C175.213 17.625 174.971 17.7891 174.736 18.0859C174.502 18.3828 174.291 18.7578 174.103 19.2109C173.916 19.6641 173.736 20.1719 173.564 20.7344C173.408 21.2812 173.283 21.8281 173.189 22.375C173.111 22.9219 173.057 23.4375 173.025 23.9219C173.01 24.4062 173.041 24.8047 173.119 25.1172L172.205 25.3047C172.252 23.8047 172.197 22.5781 172.041 21.625C171.9 20.6562 171.697 19.9141 171.432 19.3984C171.182 18.8828 170.893 18.5781 170.564 18.4844C170.236 18.375 169.908 18.4375 169.58 18.6719C169.268 18.9062 168.978 19.2969 168.713 19.8437C168.447 20.3906 168.244 21.0547 168.103 21.8359C167.978 22.6016 167.932 23.4687 167.963 24.4375C167.994 25.4062 168.158 26.4453 168.455 27.5547H167.564C167.564 27.5547 167.541 27.4062 167.494 27.1094C167.463 26.8125 167.416 26.4375 167.353 25.9844C167.307 25.5156 167.252 24.9922 167.189 24.4141C167.127 23.8203 167.064 23.2266 167.002 22.6328C166.939 22.0234 166.877 21.4453 166.814 20.8984C166.752 20.3359 166.697 19.8594 166.65 19.4687C166.65 19.4219 166.65 19.3203 166.65 19.1641C166.65 18.9922 166.65 18.8906 166.65 18.8594ZM181.426 22.4922C181.426 22.0234 181.528 21.5078 181.731 20.9453C181.934 20.3672 182.208 19.8359 182.551 19.3516C182.911 18.8516 183.309 18.4375 183.747 18.1094C184.2 17.7656 184.668 17.5937 185.153 17.5937C185.418 17.5937 185.676 17.6484 185.926 17.7578C186.192 17.8672 186.442 18.0156 186.676 18.2031C186.926 18.375 187.145 18.5781 187.333 18.8125C187.536 19.0312 187.692 19.2656 187.801 19.5156C187.911 19.7656 187.965 20.0078 187.965 20.2422C187.981 20.4766 187.918 20.6797 187.778 20.8516L182.833 21.7656C182.77 21.7812 182.715 21.8594 182.668 22C182.622 22.125 182.583 22.2891 182.551 22.4922C182.52 22.6953 182.489 22.9219 182.458 23.1719C182.442 23.4062 182.426 23.6406 182.411 23.875C182.395 24.0937 182.387 24.2969 182.387 24.4844C182.387 24.6562 182.387 24.7891 182.387 24.8828C182.387 25.3203 182.489 25.6797 182.692 25.9609C182.911 26.2266 183.184 26.4297 183.512 26.5703C183.84 26.7109 184.208 26.8047 184.614 26.8516C185.036 26.8984 185.45 26.9219 185.856 26.9219C186.262 26.9219 186.645 26.9062 187.004 26.875C187.364 26.8437 187.661 26.8281 187.895 26.8281C187.895 26.8906 187.872 26.9609 187.825 27.0391C187.778 27.1172 187.723 27.1953 187.661 27.2734C187.598 27.3359 187.536 27.3984 187.473 27.4609C187.411 27.5078 187.372 27.5391 187.356 27.5547C187.231 27.5859 187.036 27.6328 186.77 27.6953C186.52 27.7422 186.247 27.7891 185.95 27.8359C185.668 27.8828 185.403 27.9219 185.153 27.9531C184.903 27.9844 184.731 28 184.637 28C184.153 28.0937 183.731 28.0859 183.372 27.9766C183.012 27.8672 182.708 27.6797 182.458 27.4141C182.208 27.1484 182.004 26.8281 181.848 26.4531C181.692 26.0625 181.575 25.6484 181.497 25.2109C181.418 24.7734 181.372 24.3203 181.356 23.8516C181.356 23.3828 181.379 22.9297 181.426 22.4922ZM184.825 18.4844C184.684 18.4844 184.497 18.5625 184.262 18.7187C184.043 18.8594 183.833 19.0469 183.629 19.2812C183.442 19.5 183.278 19.7422 183.137 20.0078C183.012 20.2578 182.973 20.4766 183.02 20.6641C183.426 20.7109 183.848 20.7031 184.286 20.6406C184.723 20.5781 185.122 20.4844 185.481 20.3594C185.84 20.2187 186.137 20.0625 186.372 19.8906C186.606 19.7031 186.715 19.5156 186.7 19.3281C186.7 19.1406 186.551 18.9766 186.254 18.8359C185.973 18.6797 185.497 18.5625 184.825 18.4844ZM192.522 28.0469C192.147 27.8125 191.89 27.5625 191.749 27.2969C191.608 27.0312 191.546 26.7812 191.562 26.5469C191.593 26.2969 191.687 26.0859 191.843 25.9141C191.999 25.7422 192.179 25.6406 192.382 25.6094C192.601 25.5781 192.827 25.6406 193.062 25.7969C193.296 25.9375 193.507 26.2187 193.694 26.6406C193.694 26.7969 193.663 26.9609 193.601 27.1328C193.554 27.2891 193.476 27.4375 193.366 27.5781C193.272 27.7031 193.147 27.8125 192.991 27.9062C192.851 28 192.694 28.0469 192.522 28.0469ZM192.733 26.6406C192.671 26.6406 192.624 26.6641 192.593 26.7109C192.562 26.7578 192.546 26.8203 192.546 26.8984C192.546 26.9609 192.562 27.0156 192.593 27.0625C192.624 27.1094 192.671 27.125 192.733 27.1094C192.874 27.0781 192.944 27.0078 192.944 26.8984C192.944 26.7734 192.874 26.6875 192.733 26.6406ZM190.46 12.7656C190.46 12.625 190.468 12.5312 190.483 12.4844C190.515 12.4219 190.562 12.3906 190.624 12.3906C190.702 12.375 190.804 12.3672 190.929 12.3672C191.054 12.3516 191.21 12.3125 191.397 12.25L192.733 23.0547C192.702 23.0703 192.632 23.0937 192.522 23.125C192.413 23.1562 192.335 23.1719 192.288 23.1719C192.101 23.1719 191.952 23.1406 191.843 23.0781C191.733 23 191.647 22.8984 191.585 22.7734C191.538 22.6328 191.499 22.4766 191.468 22.3047C191.452 22.1172 191.429 21.9219 191.397 21.7187C191.382 21.6406 191.358 21.4375 191.327 21.1094C191.296 20.7812 191.249 20.375 191.187 19.8906C191.124 19.4062 191.062 18.875 190.999 18.2969C190.937 17.7031 190.874 17.1172 190.812 16.5391C190.749 15.9609 190.687 15.4141 190.624 14.8984C190.562 14.3828 190.515 13.9531 190.483 13.6094C190.483 13.6094 190.476 13.5703 190.46 13.4922C190.46 13.3984 190.46 13.3047 190.46 13.2109C190.46 13.1016 190.46 13.0078 190.46 12.9297C190.46 12.8359 190.46 12.7812 190.46 12.7656Z" fill="white"/>
</g>
<g filter="url(#filter1_d)">
<path d="M20.2852 85.6993C20.6715 86.0941 21.3046 86.101 21.6994 85.7148L28.1324 79.4207C28.5271 79.0344 28.5341 78.4013 28.1478 78.0065C27.7616 77.6118 27.1285 77.6048 26.7337 77.9911L21.0154 83.5859L15.4207 77.8676C15.0344 77.4729 14.4013 77.4659 14.0065 77.8522C13.6118 78.2384 13.6049 78.8716 13.9911 79.2663L20.2852 85.6993ZM85.0254 20.0003C60.7138 19.3838 44.4656 22.3218 34.2902 32.2734C24.1212 42.2188 20.2847 58.9092 20.0001 84.9891L21.9999 85.0109C22.2843 58.9587 26.1492 43.0329 35.6887 33.7032C45.2218 24.3797 60.6891 21.3838 84.9746 21.9997L85.0254 20.0003Z" fill="white"/>
</g>
<defs>
<filter id="filter0_d" x="95.3047" y="11.8047" width="100.39" height="26.0938" filterUnits="userSpaceOnUse" color-interpolation-filters="sRGB">
<feFlood flood-opacity="0" result="BackgroundImageFix"/>
<feColorMatrix in="SourceAlpha" type="matrix" values="0 0 0 0 0 0 0 0 0 0 0 0 0 0 0 0 0 0 127 0"/>
<feOffset dx="1" dy="1"/>
<feGaussianBlur stdDeviation="0.5"/>
<feColorMatrix type="matrix" values="0 0 0 0 0 0 0 0 0 0.76 0 0 0 0 1 0 0 0 0.5 0"/>
<feBlend mode="normal" in2="BackgroundImageFix" result="effect1_dropShadow"/>
<feBlend mode="normal" in="SourceGraphic" in2="effect1_dropShadow" result="shape"/>
</filter>
<filter id="filter1_d" x="0.573273" y="0.767867" width="87.7158" height="87.7158" filterUnits="userSpaceOnUse" color-interpolation-filters="sRGB">
<feFlood flood-opacity="0" result="BackgroundImageFix"/>
<feColorMatrix in="SourceAlpha" type="matrix" values="0 0 0 0 0 0 0 0 0 0 0 0 0 0 0 0 0 0 127 0"/>
<feOffset dx="1" dy="1"/>
<feGaussianBlur stdDeviation="0.5"/>
<feColorMatrix type="matrix" values="0 0 0 0 0 0 0 0 0 0.76 0 0 0 0 1 0 0 0 0.5 0"/>
<feBlend mode="normal" in2="BackgroundImageFix" result="effect1_dropShadow"/>
<feBlend mode="normal" in="SourceGraphic" in2="effect1_dropShadow" result="shape"/>
</filter>
</defs>
</svg>
