<?xml version="1.0" standalone="no"?>
<!DOCTYPE svg PUBLIC "-//W3C//DTD SVG 20010904//EN"
 "http://www.w3.org/TR/2001/REC-SVG-20010904/DTD/svg10.dtd">
<svg version="1.0" xmlns="http://www.w3.org/2000/svg"
 width="320.000000pt" height="320.000000pt" viewBox="0 0 320.000000 320.000000"
 preserveAspectRatio="xMidYMid meet">
<metadata>
Created by potrace 1.14, written by Peter Selinger 2001-2017
</metadata>
<g transform="translate(0.000000,320.000000) scale(0.100000,-0.100000)"
fill="#000000" stroke="none">
<path d="M230 3131 c0 -5 -16 -12 -35 -15 -46 -9 -102 -65 -111 -111 -3 -19
-10 -35 -15 -35 -5 0 -9 -576 -9 -1365 0 -770 4 -1365 9 -1365 5 0 11 -18 15
-40 8 -50 62 -106 111 -116 19 -3 35 -10 35 -15 0 -5 578 -9 1370 -9 792 0
1370 4 1370 9 0 5 16 12 35 15 46 9 102 65 111 111 3 19 10 35 15 35 5 0 9
578 9 1370 0 792 -4 1370 -9 1370 -5 0 -12 16 -15 35 -10 49 -66 103 -116 111
-22 4 -40 10 -40 15 0 5 -595 9 -1365 9 -789 0 -1365 -4 -1365 -9z m1750 -616
c7 -8 10 -25 8 -37 -12 -59 -622 -1715 -636 -1725 -21 -17 -113 -16 -137 1
-18 13 -4 54 295 875 172 473 319 870 327 881 11 16 25 20 72 20 40 0 63 -5
71 -15z m-882 -493 c-3 -50 -8 -66 -24 -75 -10 -6 -162 -82 -337 -168 -175
-87 -320 -159 -322 -161 -2 -2 146 -75 327 -163 182 -88 337 -169 344 -180 16
-22 19 -122 5 -144 -8 -12 -91 26 -423 193 -227 115 -419 215 -425 224 -17 20
-17 114 -1 134 7 9 197 108 422 221 328 165 413 204 424 195 10 -9 13 -29 10
-76z m1439 -118 c224 -114 414 -214 421 -222 6 -9 12 -39 12 -67 0 -28 -6 -58
-12 -67 -7 -8 -197 -108 -423 -222 -382 -193 -410 -206 -423 -189 -12 17 -14
125 -1 137 2 2 156 80 342 173 l338 168 -331 160 c-183 88 -338 169 -346 180
-22 32 -17 155 7 155 4 0 192 -93 416 -206z"/>
</g>
</svg>
